<svg xmlns="http://www.w3.org/2000/svg" viewBox="0 0 1000 455"><path fill="#F0AD00" d="M738.866 93.689l69.865-69.866H669l69.866 69.866z"/><path fill="#7FD13B" d="M163 23.314l70.374 70.375h152.972l-70.375-70.375H163zm694.782 11.834l76.126 76.126-76.473 76.474-76.126-76.126z"/><path fill="#60B5CC" d="M404 263.811V120.087H260.275L404 263.811z"/><path fill="#F0AD00" d="M601.224 120.086L669 187.863V52.31l-67.776 67.776z"/><path fill="#5A6378" d="M264.781 155.781L112 3v305.564l152.781-152.783z"/><path fill="#60B5CC" d="M761.5 124L608.72 276.781h305.561L761.5 124z"/><g font-family="Arial" font-size="350"><text x="-11" y="254">{</text><text x="373" y="254">}</text><text x="502" y="254">{</text><text x="895" y="254">}</text></g><text x="50" y="430" font-family="Arial" font-size="120" font-weight="bold" textLength="900">elm-partition</text></svg>
